<svg xmlns="http://www.w3.org/2000/svg" version="1.1" xmlns:xlink="http://www.w3.org/1999/xlink" xmlns:svgjs="http://svgjs.com/svgjs" width="512" height="512" x="0" y="0" viewBox="0 0 512 512" style="enable-background:new 0 0 512 512" xml:space="preserve" class=""><circle r="256" cx="256" cy="256" fill="#232136" shape="circle" transform="matrix(1,0,0,1,0,0)"></circle><g transform="matrix(0.8,0,0,0.8,51.200096130371094,51.19999999999999)"><path xmlns="http://www.w3.org/2000/svg" d="m444.459 288.741c-6.442-38.031-24.732-73.175-52.894-101.63l-58.673-59.287h-153.784l-58.672 59.286c-28.161 28.456-46.452 63.6-52.894 101.63-6.003 35.441-1.702 72.088 12.439 105.978 14.141 33.891 37.163 62.726 66.577 83.389 31.562 22.173 69.407 33.893 109.442 33.893s77.88-11.72 109.443-33.894c29.413-20.663 52.435-49.498 66.576-83.389 14.142-33.889 18.443-70.535 12.44-105.976zm-173.459-105.861v30.786c26.566 4.359 46.904 27.469 46.904 55.25h-30c0-14.337-11.664-26-26-26h-11.808c-14.336 0-26 11.663-26 26s11.664 26 26 26h11.808c30.878 0 56 25.121 56 56 0 27.781-20.338 50.89-46.904 55.25v30.786h-30v-30.786c-26.566-4.359-46.904-27.469-46.904-55.25h30c0 14.337 11.664 26 26 26h11.808c14.336 0 26-11.663 26-26s-11.664-26-26-26h-11.808c-30.878 0-56-25.121-56-56 0-27.781 20.338-50.89 46.904-55.25v-30.786z" fill="#ebbcba" data-original="#000000" class=""></path><path xmlns="http://www.w3.org/2000/svg" d="m332.132 97.824 36.317-97.824h-224.898l36.317 97.824z" fill="#ebbcba" data-original="#000000" class=""></path></g></svg>
